<?xml version="1.0" standalone="no"?>
<!DOCTYPE svg PUBLIC "-//W3C//DTD SVG 20010904//EN"
 "http://www.w3.org/TR/2001/REC-SVG-20010904/DTD/svg10.dtd">
<svg version="1.0" xmlns="http://www.w3.org/2000/svg"
 width="700.000000pt" height="700.000000pt" viewBox="0 0 700.000000 700.000000"
 preserveAspectRatio="xMidYMid meet">
<metadata>
Created by potrace 1.14, written by Peter Selinger 2001-2017
</metadata>
<g transform="translate(0.000000,700.000000) scale(0.100000,-0.100000)"
fill="#000000" stroke="none">
<path d="M3344 6886 c-99 -19 -136 -32 -234 -82 -142 -73 -271 -197 -340 -327
-14 -26 -27 -46 -30 -44 -141 72 -235 112 -315 133 -87 23 -120 27 -250 27
-129 0 -163 -4 -247 -26 -187 -50 -339 -136 -474 -271 -134 -134 -225 -293
-268 -465 l-21 -87 -102 4 c-487 22 -915 -302 -1035 -785 -33 -133 -31 -350 6
-488 53 -204 182 -406 337 -531 42 -34 85 -66 95 -72 17 -9 16 -13 -9 -70 -49
-108 -69 -206 -70 -332 0 -143 18 -220 83 -356 81 -168 241 -318 412 -387 281
-112 606 -57 833 141 97 85 203 260 240 395 l17 65 70 7 c39 3 75 2 79 -2 15
-15 124 -319 194 -538 271 -853 420 -1680 442 -2462 l6 -233 733 0 732 0 6
138 c11 261 27 508 42 652 75 728 258 1518 514 2217 44 119 84 221 89 226 4 4
40 5 79 2 l71 -7 12 -51 c92 -386 487 -655 877 -598 319 47 566 260 664 571
19 64 23 96 23 215 0 154 -13 222 -65 332 l-29 63 72 53 c204 152 345 375 393
627 20 101 19 286 -1 385 -81 392 -363 689 -753 792 -82 22 -120 26 -245 27
l-148 1 -5 25 c-45 211 -145 391 -297 537 -131 125 -276 208 -442 253 -102 28
-313 38 -422 20 -128 -20 -284 -81 -389 -150 l-31 -20 -53 87 c-34 55 -86 120
-139 174 -74 73 -101 92 -191 136 -58 28 -134 59 -170 68 -91 22 -259 28 -346
11z m-139 -3836 c166 -43 422 -42 593 1 46 11 86 19 88 16 3 -2 -6 -87 -20
-188 -13 -101 -30 -236 -37 -299 -6 -63 -20 -138 -31 -166 -24 -67 -82 -132
-149 -169 -49 -27 -62 -30 -149 -30 -87 0 -100 3 -149 30 -67 37 -125 102
-150 169 -11 29 -26 117 -35 206 -10 85 -26 218 -37 295 -10 77 -19 143 -19
147 0 11 8 10 95 -12z"/>
</g>
</svg>
